<mxfile host="app.diagrams.net" agent="Mozilla/5.0 (X11; Ubuntu; Linux x86_64; rv:138.0) Gecko/20100101 Firefox/138.0" version="27.0.6">
  <diagram name="Página-1" id="5-SyOxS8iklqYlHzAJ57">
    <mxGraphModel grid="1" page="1" gridSize="10" guides="1" tooltips="1" connect="1" arrows="1" fold="1" pageScale="1" pageWidth="827" pageHeight="1169" math="0" shadow="0">
      <root>
        <mxCell id="0" />
        <mxCell id="1" parent="0" />
        <mxCell id="PL8kAD3mNmq3-Lqr7aFN-1" value=":Usuário" style="rounded=0;whiteSpace=wrap;html=1;" vertex="1" parent="1">
          <mxGeometry x="30" y="105" width="120" height="60" as="geometry" />
        </mxCell>
        <mxCell id="PL8kAD3mNmq3-Lqr7aFN-3" value=":AnúncioController" style="rounded=0;whiteSpace=wrap;html=1;" vertex="1" parent="1">
          <mxGeometry x="270" y="440" width="120" height="60" as="geometry" />
        </mxCell>
        <mxCell id="PL8kAD3mNmq3-Lqr7aFN-4" value=":AnuncioRepository" style="rounded=0;whiteSpace=wrap;html=1;" vertex="1" parent="1">
          <mxGeometry x="630" y="390" width="120" height="60" as="geometry" />
        </mxCell>
        <mxCell id="PL8kAD3mNmq3-Lqr7aFN-5" value=":AnuncioService" style="rounded=0;whiteSpace=wrap;html=1;" vertex="1" parent="1">
          <mxGeometry x="360" y="80" width="120" height="60" as="geometry" />
        </mxCell>
        <mxCell id="PL8kAD3mNmq3-Lqr7aFN-6" value=":Anuncio" style="whiteSpace=wrap;html=1;" vertex="1" parent="1">
          <mxGeometry x="660" y="180" width="120" height="60" as="geometry" />
        </mxCell>
        <mxCell id="PL8kAD3mNmq3-Lqr7aFN-7" value="" style="endArrow=classic;html=1;rounded=0;entryX=0.25;entryY=0;entryDx=0;entryDy=0;exitX=0.625;exitY=1.017;exitDx=0;exitDy=0;exitPerimeter=0;" edge="1" parent="1" source="PL8kAD3mNmq3-Lqr7aFN-1" target="PL8kAD3mNmq3-Lqr7aFN-3">
          <mxGeometry width="50" height="50" relative="1" as="geometry">
            <mxPoint x="190" y="290" as="sourcePoint" />
            <mxPoint x="440" y="390" as="targetPoint" />
          </mxGeometry>
        </mxCell>
        <mxCell id="PL8kAD3mNmq3-Lqr7aFN-8" value="1: criaAnuncio(infoAnuncio)" style="text;html=1;align=center;verticalAlign=middle;resizable=0;points=[];autosize=1;strokeColor=none;fillColor=none;" vertex="1" parent="1">
          <mxGeometry x="50" y="320" width="170" height="30" as="geometry" />
        </mxCell>
        <mxCell id="PL8kAD3mNmq3-Lqr7aFN-9" value="" style="endArrow=classic;html=1;rounded=0;entryX=0.5;entryY=1;entryDx=0;entryDy=0;exitX=0.5;exitY=0;exitDx=0;exitDy=0;" edge="1" parent="1" source="PL8kAD3mNmq3-Lqr7aFN-3" target="PL8kAD3mNmq3-Lqr7aFN-5">
          <mxGeometry width="50" height="50" relative="1" as="geometry">
            <mxPoint x="390" y="440" as="sourcePoint" />
            <mxPoint x="410" y="150" as="targetPoint" />
          </mxGeometry>
        </mxCell>
        <mxCell id="PL8kAD3mNmq3-Lqr7aFN-10" value="2: criaAnuncio(infoAnuncio)" style="text;html=1;align=center;verticalAlign=middle;resizable=0;points=[];autosize=1;strokeColor=none;fillColor=none;" vertex="1" parent="1">
          <mxGeometry x="340" y="380" width="170" height="30" as="geometry" />
        </mxCell>
        <mxCell id="PL8kAD3mNmq3-Lqr7aFN-11" value="" style="endArrow=classic;html=1;rounded=0;exitX=1;exitY=0.5;exitDx=0;exitDy=0;entryX=0;entryY=0.5;entryDx=0;entryDy=0;" edge="1" parent="1" source="PL8kAD3mNmq3-Lqr7aFN-5" target="PL8kAD3mNmq3-Lqr7aFN-6">
          <mxGeometry width="50" height="50" relative="1" as="geometry">
            <mxPoint x="390" y="440" as="sourcePoint" />
            <mxPoint x="630" y="190" as="targetPoint" />
          </mxGeometry>
        </mxCell>
        <mxCell id="PL8kAD3mNmq3-Lqr7aFN-12" value="3:criar(Anuncio)" style="text;html=1;align=center;verticalAlign=middle;resizable=0;points=[];autosize=1;strokeColor=none;fillColor=none;" vertex="1" parent="1">
          <mxGeometry x="540" y="120" width="110" height="30" as="geometry" />
        </mxCell>
        <mxCell id="PL8kAD3mNmq3-Lqr7aFN-13" value="" style="endArrow=classic;html=1;rounded=0;exitX=0.808;exitY=1.033;exitDx=0;exitDy=0;exitPerimeter=0;entryX=0.108;entryY=-0.033;entryDx=0;entryDy=0;entryPerimeter=0;" edge="1" parent="1" source="PL8kAD3mNmq3-Lqr7aFN-5" target="PL8kAD3mNmq3-Lqr7aFN-4">
          <mxGeometry width="50" height="50" relative="1" as="geometry">
            <mxPoint x="390" y="440" as="sourcePoint" />
            <mxPoint x="440" y="390" as="targetPoint" />
          </mxGeometry>
        </mxCell>
        <mxCell id="PL8kAD3mNmq3-Lqr7aFN-14" value="4: sucesso := salvar(anuncio) : Bool" style="text;html=1;align=center;verticalAlign=middle;resizable=0;points=[];autosize=1;strokeColor=none;fillColor=none;" vertex="1" parent="1">
          <mxGeometry x="585" y="300" width="210" height="30" as="geometry" />
        </mxCell>
        <mxCell id="PL8kAD3mNmq3-Lqr7aFN-15" value="" style="endArrow=classic;html=1;rounded=0;exitX=0.433;exitY=-0.067;exitDx=0;exitDy=0;exitPerimeter=0;entryX=1;entryY=0.25;entryDx=0;entryDy=0;" edge="1" parent="1" source="PL8kAD3mNmq3-Lqr7aFN-3" target="PL8kAD3mNmq3-Lqr7aFN-1">
          <mxGeometry width="50" height="50" relative="1" as="geometry">
            <mxPoint x="390" y="440" as="sourcePoint" />
            <mxPoint x="440" y="390" as="targetPoint" />
          </mxGeometry>
        </mxCell>
        <mxCell id="PL8kAD3mNmq3-Lqr7aFN-16" value="5: mostrar_resultado(sucesso)" style="text;html=1;align=center;verticalAlign=middle;resizable=0;points=[];autosize=1;strokeColor=none;fillColor=none;" vertex="1" parent="1">
          <mxGeometry x="190" y="180" width="190" height="30" as="geometry" />
        </mxCell>
      </root>
    </mxGraphModel>
  </diagram>
</mxfile>
